<svg width="16" height="17" viewBox="0 0 16 17" fill="none" xmlns="http://www.w3.org/2000/svg">
<path fill-rule="evenodd" clip-rule="evenodd" d="M14.9999 8.81997C14.9999 8.68736 14.9472 8.56018 14.8535 8.46641C14.7597 8.37265 14.6325 8.31997 14.4999 8.31997H2.70692L5.85392 5.17397C5.9004 5.12748 5.93728 5.07229 5.96244 5.01155C5.9876 4.95081 6.00055 4.88571 6.00055 4.81997C6.00055 4.75422 5.9876 4.68912 5.96244 4.62838C5.93728 4.56764 5.9004 4.51246 5.85392 4.46597C5.80743 4.41948 5.75224 4.3826 5.6915 4.35744C5.63076 4.33229 5.56566 4.31934 5.49992 4.31934C5.43417 4.31934 5.36907 4.33229 5.30833 4.35744C5.24759 4.3826 5.1924 4.41948 5.14592 4.46597L1.14592 8.46597C1.09935 8.51241 1.06241 8.56759 1.0372 8.62833C1.012 8.68908 0.999023 8.7542 0.999023 8.81997C0.999023 8.88573 1.012 8.95086 1.0372 9.0116C1.06241 9.07235 1.09935 9.12752 1.14592 9.17397L5.14592 13.174C5.1924 13.2205 5.24759 13.2573 5.30833 13.2825C5.36907 13.3076 5.43417 13.3206 5.49992 13.3206C5.56566 13.3206 5.63076 13.3076 5.6915 13.2825C5.75224 13.2573 5.80743 13.2205 5.85392 13.174C5.9004 13.1275 5.93728 13.0723 5.96244 13.0116C5.9876 12.9508 6.00055 12.8857 6.00055 12.82C6.00055 12.7542 5.9876 12.6891 5.96244 12.6284C5.93728 12.5676 5.9004 12.5125 5.85392 12.466L2.70692 9.31997H14.4999C14.6325 9.31997 14.7597 9.26729 14.8535 9.17352C14.9472 9.07975 14.9999 8.95258 14.9999 8.81997Z" fill="#0D6EFD"/>
</svg>
