<svg width="17" height="17" viewBox="0 0 17 17" fill="none" xmlns="http://www.w3.org/2000/svg">
<g clip-path="url(#clip0_2446_121)">
<rect width="16" height="16" transform="translate(0.5 0.820068)" fill="white" fill-opacity="0.01"/>
<g clip-path="url(#clip1_2446_121)">
<path d="M14.4996 1.81921C14.7649 1.81921 15.0192 1.92457 15.2067 2.11211C15.3943 2.29964 15.4996 2.554 15.4996 2.81921V14.8192C15.4996 15.0844 15.3943 15.3388 15.2067 15.5263C15.0192 15.7139 14.7649 15.8192 14.4996 15.8192H2.49963C2.23442 15.8192 1.98006 15.7139 1.79253 15.5263C1.60499 15.3388 1.49963 15.0844 1.49963 14.8192V2.81921C1.49963 2.554 1.60499 2.29964 1.79253 2.11211C1.98006 1.92457 2.23442 1.81921 2.49963 1.81921H14.4996ZM2.49963 0.819214C1.9692 0.819214 1.46049 1.02993 1.08542 1.405C0.710348 1.78007 0.499634 2.28878 0.499634 2.81921V14.8192C0.499634 15.3496 0.710348 15.8584 1.08542 16.2334C1.46049 16.6085 1.9692 16.8192 2.49963 16.8192H14.4996C15.0301 16.8192 15.5388 16.6085 15.9138 16.2334C16.2889 15.8584 16.4996 15.3496 16.4996 14.8192V2.81921C16.4996 2.28878 16.2889 1.78007 15.9138 1.405C15.5388 1.02993 15.0301 0.819214 14.4996 0.819214H2.49963Z" fill="#0D6EFD"/>
<path d="M8.49963 4.81921C8.63224 4.81921 8.75942 4.87189 8.85319 4.96566C8.94696 5.05943 8.99963 5.18661 8.99963 5.31921V8.31921H11.9996C12.1322 8.31921 12.2594 8.37189 12.3532 8.46566C12.447 8.55943 12.4996 8.68661 12.4996 8.81921C12.4996 8.95182 12.447 9.079 12.3532 9.17277C12.2594 9.26654 12.1322 9.31921 11.9996 9.31921H8.99963V12.3192C8.99963 12.4518 8.94696 12.579 8.85319 12.6728C8.75942 12.7665 8.63224 12.8192 8.49963 12.8192C8.36703 12.8192 8.23985 12.7665 8.14608 12.6728C8.05231 12.579 7.99963 12.4518 7.99963 12.3192V9.31921H4.99963C4.86703 9.31921 4.73985 9.26654 4.64608 9.17277C4.55231 9.079 4.49963 8.95182 4.49963 8.81921C4.49963 8.68661 4.55231 8.55943 4.64608 8.46566C4.73985 8.37189 4.86703 8.31921 4.99963 8.31921H7.99963V5.31921C7.99963 5.18661 8.05231 5.05943 8.14608 4.96566C8.23985 4.87189 8.36703 4.81921 8.49963 4.81921Z" fill="#0D6EFD"/>
</g>
</g>
<defs>
<clipPath id="clip0_2446_121">
<rect width="16" height="16" fill="white" transform="translate(0.5 0.820068)"/>
</clipPath>
<clipPath id="clip1_2446_121">
<rect width="16" height="16" fill="white" transform="translate(0.5 0.820068)"/>
</clipPath>
</defs>
</svg>
