<svg width="188" height="35" viewBox="0 0 188 35" fill="none" xmlns="http://www.w3.org/2000/svg">
<g clip-path="url(#clip0_320_7079)">
<path d="M89.34 18.9401H111.58C113.5 18.9401 115.06 20.2801 115.06 21.9401C115.06 23.6001 113.5 24.9401 111.58 24.9401H89.34V18.9401Z" fill="#FD9843"/>
<path d="M89.34 28.3201H111.58C113.5 28.3201 115.06 29.6601 115.06 31.3201C115.06 32.9801 113.5 34.3201 111.58 34.3201H89.34V28.3201Z" fill="#FD9843"/>
<path d="M84.3 15.3101C85.8188 15.3101 87.05 14.0788 87.05 12.5601C87.05 11.0413 85.8188 9.81006 84.3 9.81006C82.7813 9.81006 81.55 11.0413 81.55 12.5601C81.55 14.0788 82.7813 15.3101 84.3 15.3101Z" fill="#FD9843"/>
<path d="M84.3 24.6901C85.8188 24.6901 87.05 23.4588 87.05 21.9401C87.05 20.4213 85.8188 19.1901 84.3 19.1901C82.7813 19.1901 81.55 20.4213 81.55 21.9401C81.55 23.4588 82.7813 24.6901 84.3 24.6901Z" fill="#FD9843"/>
<path d="M84.3 34.0701C85.8188 34.0701 87.05 32.8389 87.05 31.3201C87.05 29.8013 85.8188 28.5701 84.3 28.5701C82.7813 28.5701 81.55 29.8013 81.55 31.3201C81.55 32.8389 82.7813 34.0701 84.3 34.0701Z" fill="#FD9843"/>
<path d="M89.34 9.81005H111.58C113.5 9.81005 115.06 11.04 115.06 12.56C115.06 14.08 113.5 15.31 111.58 15.31H89.34V9.80005V9.81005Z" fill="#FD9843"/>
<path d="M1.16003 34.32V13.08C1.16003 11.16 2.72003 9.59998 4.64003 9.59998C6.56003 9.59998 8.12003 11.16 8.12003 13.08V34.32H1.16003Z" fill="#0D6EFD"/>
<path d="M4.64001 7.57996C6.71108 7.57996 8.39001 5.90102 8.39001 3.82996C8.39001 1.75889 6.71108 0.0799561 4.64001 0.0799561C2.56895 0.0799561 0.890015 1.75889 0.890015 3.82996C0.890015 5.90102 2.56895 7.57996 4.64001 7.57996Z" fill="#0D6EFD"/>
<path d="M13.4 34.32V9.59998H34.95C37.77 9.59998 39.82 10.3 41.12 11.69C42.42 13.08 43.06 14.91 43.06 17.19V34.33H36.1V18C36.1 16.08 35.14 15.12 33.22 15.12H20.36V34.32H13.4Z" fill="#0D6EFD"/>
<path d="M60.78 34.32C56.49 34.32 53.15 33.26 50.75 31.15C48.35 29.04 47.15 25.98 47.15 21.98C47.15 17.98 48.35 14.88 50.75 12.76C53.15 10.65 56.49 9.59 60.78 9.59H76.86V15.11H60.78C58.7 15.11 57.11 15.68 56 16.81C54.9 17.95 54.34 19.67 54.34 21.97C54.34 24.27 54.89 25.95 56 27.08C57.1 28.22 58.7 28.78 60.78 28.78H77.34V34.3H60.78V34.32ZM71.58 34.32V0H78.54V34.32H71.58Z" fill="#0D6EFD"/>
<path d="M117.9 34.32L127.21 21.98L117.9 9.64001H126.06L133.21 19.19H136.71L143.91 9.64001H152.02L142.76 21.98L152.02 34.32H143.91L136.66 24.72H133.2L126.05 34.32H117.89H117.9Z" fill="#0D6EFD"/>
<path d="M161.72 34.32C159.13 34.32 157.14 33.66 155.77 32.35C154.39 31.04 153.71 29.17 153.71 26.73C153.71 24.29 154.4 22.47 155.77 21.16C157.15 19.85 159.13 19.19 161.72 19.19H180.15V18.04C180.15 16.09 179.19 15.11 177.27 15.11H156.92V9.58997H179.1C182.01 9.58997 184.08 10.25 185.29 11.58C186.51 12.91 187.11 14.77 187.11 17.17V34.31H161.72V34.32ZM162.97 28.8H180.15V24.72H162.97C162.36 24.72 161.89 24.9 161.55 25.27C161.21 25.64 161.05 26.13 161.05 26.73C161.05 27.33 161.22 27.83 161.55 28.22C161.89 28.6 162.36 28.8 162.97 28.8Z" fill="#0D6EFD"/>
</g>
<defs>
<clipPath id="clip0_320_7079">
<rect width="186.22" height="34.32" fill="white" transform="translate(0.890015)"/>
</clipPath>
</defs>
</svg>
