<svg width="16" height="17" viewBox="0 0 16 17" fill="none" xmlns="http://www.w3.org/2000/svg">
<g clip-path="url(#clip0_320_7115)">
<path d="M15.502 2.2601C15.5954 2.35382 15.6479 2.48076 15.6479 2.6131C15.6479 2.74543 15.5954 2.87237 15.502 2.9661L14.459 4.0101L12.459 2.0101L13.502 0.966095C13.5958 0.87236 13.7229 0.819702 13.8555 0.819702C13.9881 0.819702 14.1152 0.87236 14.209 0.966095L15.502 2.2591V2.2601ZM13.752 4.7161L11.752 2.7161L4.939 9.5301C4.88396 9.58512 4.84253 9.65224 4.818 9.7261L4.013 12.1401C3.9984 12.1841 3.99633 12.2313 4.00701 12.2764C4.0177 12.3215 4.04072 12.3628 4.07351 12.3956C4.10629 12.4284 4.14755 12.4514 4.19267 12.4621C4.23779 12.4728 4.28499 12.4707 4.329 12.4561L6.743 11.6511C6.81676 11.6269 6.88387 11.5858 6.939 11.5311L13.752 4.7161Z" fill="#0D6EFD"/>
<path fill-rule="evenodd" clip-rule="evenodd" d="M1 13.8201C1 14.2179 1.15804 14.5995 1.43934 14.8808C1.72064 15.1621 2.10218 15.3201 2.5 15.3201H13.5C13.8978 15.3201 14.2794 15.1621 14.5607 14.8808C14.842 14.5995 15 14.2179 15 13.8201V7.8201C15 7.68749 14.9473 7.56031 14.8536 7.46654C14.7598 7.37277 14.6326 7.3201 14.5 7.3201C14.3674 7.3201 14.2402 7.37277 14.1464 7.46654C14.0527 7.56031 14 7.68749 14 7.8201V13.8201C14 13.9527 13.9473 14.0799 13.8536 14.1736C13.7598 14.2674 13.6326 14.3201 13.5 14.3201H2.5C2.36739 14.3201 2.24021 14.2674 2.14645 14.1736C2.05268 14.0799 2 13.9527 2 13.8201V2.8201C2 2.68749 2.05268 2.56031 2.14645 2.46654C2.24021 2.37277 2.36739 2.3201 2.5 2.3201H9C9.13261 2.3201 9.25979 2.26742 9.35355 2.17365C9.44732 2.07988 9.5 1.9527 9.5 1.8201C9.5 1.68749 9.44732 1.56031 9.35355 1.46654C9.25979 1.37277 9.13261 1.3201 9 1.3201H2.5C2.10218 1.3201 1.72064 1.47813 1.43934 1.75944C1.15804 2.04074 1 2.42227 1 2.8201V13.8201Z" fill="#0D6EFD"/>
</g>
<defs>
<clipPath id="clip0_320_7115">
<rect width="16" height="16" fill="white" transform="translate(0 0.320068)"/>
</clipPath>
</defs>
</svg>
