<svg width="16" height="17" viewBox="0 0 16 17" fill="none" xmlns="http://www.w3.org/2000/svg">
<g clip-path="url(#clip0_320_7116)">
<path d="M5.5 5.82007C5.63261 5.82007 5.75979 5.87275 5.85355 5.96652C5.94732 6.06028 6 6.18746 6 6.32007V12.3201C6 12.4527 5.94732 12.5799 5.85355 12.6736C5.75979 12.7674 5.63261 12.8201 5.5 12.8201C5.36739 12.8201 5.24021 12.7674 5.14645 12.6736C5.05268 12.5799 5 12.4527 5 12.3201V6.32007C5 6.18746 5.05268 6.06028 5.14645 5.96652C5.24021 5.87275 5.36739 5.82007 5.5 5.82007ZM8 5.82007C8.13261 5.82007 8.25979 5.87275 8.35355 5.96652C8.44732 6.06028 8.5 6.18746 8.5 6.32007V12.3201C8.5 12.4527 8.44732 12.5799 8.35355 12.6736C8.25979 12.7674 8.13261 12.8201 8 12.8201C7.86739 12.8201 7.74021 12.7674 7.64645 12.6736C7.55268 12.5799 7.5 12.4527 7.5 12.3201V6.32007C7.5 6.18746 7.55268 6.06028 7.64645 5.96652C7.74021 5.87275 7.86739 5.82007 8 5.82007ZM11 6.32007C11 6.18746 10.9473 6.06028 10.8536 5.96652C10.7598 5.87275 10.6326 5.82007 10.5 5.82007C10.3674 5.82007 10.2402 5.87275 10.1464 5.96652C10.0527 6.06028 10 6.18746 10 6.32007V12.3201C10 12.4527 10.0527 12.5799 10.1464 12.6736C10.2402 12.7674 10.3674 12.8201 10.5 12.8201C10.6326 12.8201 10.7598 12.7674 10.8536 12.6736C10.9473 12.5799 11 12.4527 11 12.3201V6.32007Z" fill="#0D6EFD"/>
<path fill-rule="evenodd" clip-rule="evenodd" d="M14.5 3.32007C14.5 3.58528 14.3946 3.83964 14.2071 4.02718C14.0196 4.21471 13.7652 4.32007 13.5 4.32007H13V13.3201C13 13.8505 12.7893 14.3592 12.4142 14.7343C12.0391 15.1094 11.5304 15.3201 11 15.3201H5C4.46957 15.3201 3.96086 15.1094 3.58579 14.7343C3.21071 14.3592 3 13.8505 3 13.3201V4.32007H2.5C2.23478 4.32007 1.98043 4.21471 1.79289 4.02718C1.60536 3.83964 1.5 3.58528 1.5 3.32007V2.32007C1.5 2.05485 1.60536 1.8005 1.79289 1.61296C1.98043 1.42543 2.23478 1.32007 2.5 1.32007H6C6 1.05485 6.10536 0.800498 6.29289 0.612962C6.48043 0.425425 6.73478 0.320068 7 0.320068H9C9.26522 0.320068 9.51957 0.425425 9.70711 0.612962C9.89464 0.800498 10 1.05485 10 1.32007H13.5C13.7652 1.32007 14.0196 1.42543 14.2071 1.61296C14.3946 1.8005 14.5 2.05485 14.5 2.32007V3.32007ZM4.118 4.32007L4 4.37907V13.3201C4 13.5853 4.10536 13.8396 4.29289 14.0272C4.48043 14.2147 4.73478 14.3201 5 14.3201H11C11.2652 14.3201 11.5196 14.2147 11.7071 14.0272C11.8946 13.8396 12 13.5853 12 13.3201V4.37907L11.882 4.32007H4.118ZM2.5 3.32007V2.32007H13.5V3.32007H2.5Z" fill="#0D6EFD"/>
</g>
<defs>
<clipPath id="clip0_320_7116">
<rect width="16" height="16" fill="white" transform="translate(0 0.320068)"/>
</clipPath>
</defs>
</svg>
